<svg width="85" height="85" viewBox="0 0 85 85" fill="none" xmlns="http://www.w3.org/2000/svg">
<rect width="85" height="85" rx="42.5" fill="url(#paint0_linear_4010_4)"/>
<g clip-path="url(#clip0_4010_4)">
<path d="M57.2089 47.5054C55.6657 45.961 53.5244 45.3068 50.7744 46.0438L40.9683 36.2277L41.0979 35.7376C41.6627 33.6185 41.0524 31.3407 39.5058 29.794C37.931 28.218 35.6922 27.6398 33.575 28.2214C33.273 28.3043 33.038 28.5415 32.958 28.8443C32.878 29.147 32.9658 29.4688 33.1871 29.6902L35.5482 32.0514C36.2385 32.7434 36.2318 33.8516 35.5499 34.5353C34.8735 35.2136 33.7364 35.2125 33.0626 34.537L30.701 32.1752C30.4796 31.9537 30.1568 31.8668 29.8541 31.9472C29.5513 32.0276 29.3149 32.2632 29.2323 32.5654C28.6592 34.6595 29.223 36.9121 30.8053 38.4944C32.3478 40.0381 34.4864 40.6947 37.2381 39.9561L47.045 49.7722C46.3131 52.5214 46.9444 54.6419 48.5083 56.2058C50.0851 57.7838 52.3249 58.3578 54.4376 57.7781C54.7395 57.6952 54.9746 57.4579 55.0547 57.1552C55.1347 56.8524 55.047 56.5306 54.8256 56.3091L52.465 53.9485C51.7747 53.2565 51.7814 52.1481 52.4633 51.4646C53.1482 50.7832 54.2827 50.794 54.9506 51.4637L57.3124 53.8248C57.5338 54.0463 57.8566 54.1332 58.1593 54.0527C58.462 53.9723 58.6984 53.7368 58.781 53.4346C59.3541 51.3409 58.7904 49.0877 57.2089 47.5054Z" fill="white"/>
<path d="M38.4073 43.6201L30.0289 51.9996C28.6577 53.3708 28.6577 55.6005 30.0289 56.9716C31.4 58.3427 33.6297 58.3427 35.0008 56.9716L43.3791 48.5923L38.4073 43.6201ZM34.1751 54.244C33.8318 54.5873 33.2757 54.5873 32.9323 54.244C32.589 53.9007 32.589 53.3445 32.9323 53.0012L38.2632 47.6694C38.6065 47.3261 39.1627 47.3261 39.506 47.6694C39.8493 48.0127 39.8493 48.5688 39.506 48.9121L34.1751 54.244Z" fill="white"/>
<path d="M58.7417 29.7726L57.2265 28.2575C56.9414 27.9723 56.4988 27.9178 56.153 28.1252L51.492 30.9214C51.0016 31.2156 50.9183 31.8922 51.3226 32.2966L51.6937 32.6675L45.7769 38.5601L48.2633 41.0465L54.1801 35.1539L54.7027 35.6766C55.107 36.0808 55.7837 35.9976 56.0778 35.5072L58.8741 30.8463C59.0814 30.5004 59.0269 30.0578 58.7417 29.7726Z" fill="white"/>
</g>
<defs>
<linearGradient id="paint0_linear_4010_4" x1="42.5" y1="0" x2="62.5" y2="108" gradientUnits="userSpaceOnUse">
<stop stop-color="#8C01CB"/>
<stop offset="1" stop-color="#4603AF"/>
</linearGradient>
<clipPath id="clip0_4010_4">
<rect width="30" height="30" fill="white" transform="translate(29 28)"/>
</clipPath>
</defs>
</svg>
