<svg width="85" height="85" viewBox="0 0 85 85" fill="none" xmlns="http://www.w3.org/2000/svg">
<rect width="85" height="85" rx="42.5" fill="url(#paint0_linear_4012_5)"/>
<path d="M43.3763 37.8422L42.0215 35.0969L40.6667 37.8422C40.5273 38.1246 40.2579 38.3204 39.9461 38.3657L36.9165 38.8059L39.1088 40.9428C39.3343 41.1627 39.4372 41.4794 39.384 41.7899L38.8665 44.8072L41.5762 43.3826C41.7155 43.3093 41.8686 43.2727 42.0215 43.2727C42.1744 43.2727 42.3275 43.3094 42.4668 43.3826L45.1765 44.8072L44.659 41.7899C44.6058 41.4795 44.7087 41.1627 44.9342 40.9428L47.1265 38.8059L44.0969 38.3657C43.7852 38.3204 43.5157 38.1246 43.3763 37.8422Z" fill="white"/>
<path d="M55.793 40.8009C55.711 40.5487 55.711 40.2821 55.793 40.0298L56.5686 37.643C56.9932 36.3362 56.5316 34.9156 55.42 34.1079L53.3896 32.6327C53.1751 32.4768 53.0183 32.2611 52.9364 32.0088L52.1608 29.622C51.7361 28.3153 50.5276 27.4373 49.1536 27.4373H46.6439C46.3787 27.4373 46.1251 27.3549 45.9105 27.199L43.8801 25.7238C42.7685 24.9163 41.2748 24.9163 40.1632 25.7238L38.1328 27.199C37.9183 27.3549 37.6646 27.4373 37.3995 27.4373H34.8897C33.5158 27.4373 32.3073 28.3153 31.8826 29.6221L31.107 32.009C31.0251 32.2612 30.8683 32.4769 30.6537 32.6328L28.6234 34.108C27.5119 34.9156 27.0502 36.3362 27.4748 37.643L28.2504 40.0299C28.3324 40.2821 28.3324 40.5487 28.2504 40.801L27.4748 43.1879C27.0502 44.4947 27.5119 45.9153 28.6235 46.723L30.6539 48.1983C30.8685 48.3541 31.0251 48.5698 31.1071 48.8222L31.8826 51.209C32.3074 52.5157 33.5158 53.3937 34.8898 53.3937H37.3996C37.6647 53.3937 37.9184 53.4761 38.1329 53.632L40.1634 55.1071C40.7193 55.5109 41.3704 55.7129 42.0218 55.7129C42.6731 55.7129 43.3245 55.5109 43.8803 55.1072L45.9108 53.632C46.1253 53.4761 46.3789 53.3937 46.6441 53.3937H49.1538C50.5277 53.3937 51.7363 52.5157 52.161 51.2089L52.9366 48.822C53.0185 48.5698 53.1752 48.3541 53.3898 48.1982L55.4202 46.7229C56.5318 45.9153 56.9933 44.4946 56.5688 43.1878L55.793 40.8009ZM49.8515 38.823L46.631 41.9622L47.3912 46.3948C47.4529 46.7538 47.3052 47.1167 47.0104 47.3309C46.8437 47.4521 46.6462 47.5137 46.4478 47.5137C46.2954 47.5137 46.1426 47.4774 46.0026 47.4038L42.0217 45.3109L38.0409 47.4037C37.7185 47.5731 37.3277 47.5451 37.033 47.3309C36.7383 47.1168 36.5907 46.7539 36.6522 46.3948L37.4125 41.9622L34.192 38.823C33.9311 38.5687 33.8373 38.1884 33.9498 37.8419C34.0625 37.4955 34.3619 37.243 34.7224 37.1906L39.1731 36.5438L41.1635 32.5108C41.3247 32.1842 41.6574 31.9774 42.0217 31.9774C42.3861 31.9774 42.7187 32.1842 42.88 32.5108L44.8703 36.5438L49.3211 37.1906C49.6816 37.2429 49.9811 37.4955 50.0936 37.8419C50.2062 38.1884 50.1123 38.5687 49.8515 38.823Z" fill="white"/>
<path d="M60.0385 53.3037L55.5175 48.7817L54.527 49.5005L53.7987 51.7409C53.1431 53.7602 51.2759 55.1163 49.1532 55.1163H46.798L45.8706 55.7891L51.7123 61.6299C51.8932 61.8108 52.1382 61.9103 52.3889 61.9103C52.454 61.9103 52.5201 61.9036 52.5851 61.8892C52.901 61.8232 53.1622 61.6021 53.2799 61.3016L55.0887 56.6792L59.7102 54.8713C60.0117 54.7536 60.2328 54.4923 60.2988 54.1756C60.3648 53.8597 60.2672 53.5315 60.0385 53.3037Z" fill="white"/>
<path d="M37.2447 55.1163H34.8895C32.7668 55.1163 30.8996 53.7602 30.244 51.7409L29.5157 49.5005L28.5252 48.7817L24.0042 53.3037C23.7755 53.5315 23.6779 53.8597 23.7439 54.1756C23.8099 54.4923 24.031 54.7536 24.3325 54.8713L28.954 56.6792L30.7628 61.3016C30.8805 61.6021 31.1417 61.8232 31.4576 61.8892C31.5226 61.9036 31.5887 61.9103 31.6538 61.9103C31.9045 61.9103 32.1495 61.8108 32.3304 61.6299L38.1721 55.7891L37.2447 55.1163Z" fill="white"/>
<defs>
<linearGradient id="paint0_linear_4012_5" x1="42.5" y1="0" x2="62.5" y2="108" gradientUnits="userSpaceOnUse">
<stop stop-color="#8C01CB"/>
<stop offset="1" stop-color="#4603AF"/>
</linearGradient>
</defs>
</svg>
