<svg width="85" height="85" viewBox="0 0 85 85" fill="none" xmlns="http://www.w3.org/2000/svg">
<rect width="85" height="85" rx="42.5" fill="url(#paint0_linear_4010_2)"/>
<g clip-path="url(#clip0_4010_2)">
<path d="M51.5416 33.4583V30.5521C51.5416 28.5926 49.949 27 47.9895 27H37.0103C35.0509 27 33.4583 28.5926 33.4583 30.5521V33.4583H51.5416Z" fill="white"/>
<path d="M54.4479 34.75H30.5521C28.5926 34.75 27 36.3426 27 38.3021V46.6979C27 48.6574 28.5926 50.25 30.5521 50.25H32.1667V44.7604C32.1667 43.514 33.1806 42.5 34.4271 42.5H50.5729C51.8194 42.5 52.8333 43.514 52.8333 44.7604V50.25H54.4479C56.4074 50.25 58 48.6574 58 46.6979V38.3021C58 36.3426 56.4074 34.75 54.4479 34.75Z" fill="white"/>
<path d="M50.5728 43.7916H34.427C33.8923 43.7916 33.4583 44.2256 33.4583 44.7604V54.4479C33.4583 56.4073 35.0509 58 37.0103 58H47.9895C49.949 58 51.5416 56.4073 51.5416 54.4479V44.7604C51.5416 44.2256 51.1076 43.7916 50.5728 43.7916ZM38.302 48.3125H40.2395C40.7743 48.3125 41.2083 48.7465 41.2083 49.2812C41.2083 49.816 40.7743 50.25 40.2395 50.25H38.302C37.7673 50.25 37.3333 49.816 37.3333 49.2812C37.3333 48.7465 37.7673 48.3125 38.302 48.3125ZM45.4062 54.125H38.302C37.7673 54.125 37.3333 53.691 37.3333 53.1562C37.3333 52.6215 37.7673 52.1875 38.302 52.1875H45.4062C45.9409 52.1875 46.3749 52.6215 46.3749 53.1562C46.3749 53.691 45.9409 54.125 45.4062 54.125Z" fill="white"/>
</g>
<defs>
<linearGradient id="paint0_linear_4010_2" x1="42.5" y1="0" x2="62.5" y2="108" gradientUnits="userSpaceOnUse">
<stop stop-color="#8C01CB"/>
<stop offset="1" stop-color="#4603AF"/>
</linearGradient>
<clipPath id="clip0_4010_2">
<rect width="31" height="31" fill="white" transform="translate(27 27)"/>
</clipPath>
</defs>
</svg>
