<svg width="85" height="85" viewBox="0 0 85 85" fill="none" xmlns="http://www.w3.org/2000/svg">
<rect width="85" height="85" rx="42.5" fill="url(#paint0_linear_4012_2)"/>
<path fill-rule="evenodd" clip-rule="evenodd" d="M48.8111 58.4282V45.4988L60 39.0389V51.4733C60 51.7874 59.8432 52.0589 59.5713 52.2159L48.8111 58.4282ZM35.3518 52.0022H26.3241C25.5929 52.0022 25 51.4093 25 50.678C25 49.9468 25.5929 49.3539 26.3241 49.3539H35.3047C36.8575 49.3539 36.8575 46.874 35.3047 46.874H29.908C29.1768 46.874 28.5838 46.2811 28.5838 45.5499C28.5838 44.8186 29.1768 44.2257 29.908 44.2257H34.1289C35.6818 44.2257 35.6818 41.7458 34.1289 41.7458H26.3242C25.5929 41.7458 25.0001 41.1529 25.0001 40.4217C25.0001 39.6904 25.5929 39.0976 26.3242 39.0976H35.3947L46.4822 45.499V58.4282L35.3518 52.0022ZM36.4494 37.0241L47.6466 43.4888L58.8438 37.024L47.6681 30.5718H40.3356C39.6044 30.5718 39.0115 31.1647 39.0115 31.8959C39.0115 32.6271 39.6044 33.22 40.3356 33.22H41.8852C42.0275 33.22 42.1468 33.3116 42.1836 33.449C42.2204 33.5865 42.1629 33.7254 42.0397 33.7966L36.4494 37.0241ZM35.8121 30.5718C36.5433 30.5718 37.1362 31.1647 37.1362 31.8959C37.1362 32.6271 36.5433 33.22 35.8121 33.22H27.7636C27.0324 33.22 26.4394 32.6271 26.4394 31.8959C26.4394 31.1647 27.0323 30.5718 27.7636 30.5718H35.8121Z" fill="white"/>
<defs>
<linearGradient id="paint0_linear_4012_2" x1="42.5" y1="0" x2="62.5" y2="108" gradientUnits="userSpaceOnUse">
<stop stop-color="#8C01CB"/>
<stop offset="1" stop-color="#4603AF"/>
</linearGradient>
</defs>
</svg>
