<svg width="85" height="85" viewBox="0 0 85 85" fill="none" xmlns="http://www.w3.org/2000/svg">
<rect width="85" height="85" rx="42.5" fill="url(#paint0_linear_4010_3)"/>
<path d="M57.7501 29.5H44.7226C43.6201 26.9825 40.9151 25.3263 37.8926 25.845C35.4314 26.2675 33.4014 28.2075 32.8914 30.6525C32.0476 34.6925 35.1089 38.25 39.0001 38.25C41.5614 38.25 43.7576 36.705 44.7226 34.5H48.7576C48.9089 34.5 49.0489 34.4225 49.1289 34.2938L49.9801 32.9313C50.1226 32.7038 50.4326 32.6563 50.6364 32.83L52.4776 34.4038C52.6451 34.5463 52.9014 34.5 53.0076 34.3075L53.7489 32.9563C53.8801 32.7175 54.1939 32.655 54.4076 32.825L56.5001 34.5H57.7501L60.7114 32.1313C60.7951 32.0638 60.7951 31.9363 60.7114 31.8688L57.7501 29.5ZM37.1251 33.875C36.0901 33.875 35.2501 33.0363 35.2501 32C35.2501 30.9638 36.0901 30.125 37.1251 30.125C38.1601 30.125 39.0001 30.965 39.0001 32C39.0001 33.035 38.1601 33.875 37.1251 33.875Z" fill="white"/>
<path d="M39.6137 51.1125L36.42 52.6688L34.2 44.47L37.3225 42.9088C38.4975 42.3213 39.7925 42.015 41.1062 42.015H48.8324C49.8549 42.015 50.7437 42.87 50.7437 43.9263C50.7437 44.8925 49.9625 45.75 48.9937 45.8288L46.4125 46.0425C44.765 46.1813 44.9699 48.67 46.6187 48.535L49.1987 48.3213C51.1975 48.1563 52.8124 46.6363 53.1674 44.7188L58.0337 43.3838C58.9099 43.1438 59.8224 43.6175 60.1299 44.4725C60.4324 45.3125 60.0487 46.2463 59.2424 46.63L48.87 52.2463C47.7275 52.865 46.3887 53.015 45.1387 52.6638L39.6137 51.1125Z" fill="white"/>
<path d="M34.0887 55.485L26.5 59.5V46.375L30.8488 44.425C31.1988 44.2675 31.6075 44.4612 31.7075 44.8312L34.4 54.7687C34.4762 55.0512 34.3463 55.3487 34.0887 55.485Z" fill="white"/>
<defs>
<linearGradient id="paint0_linear_4010_3" x1="42.5" y1="0" x2="62.5" y2="108" gradientUnits="userSpaceOnUse">
<stop stop-color="#8C01CB"/>
<stop offset="1" stop-color="#4603AF"/>
</linearGradient>
</defs>
</svg>
