<svg width="85" height="85" viewBox="0 0 85 85" fill="none" xmlns="http://www.w3.org/2000/svg">
<rect width="85" height="85" rx="42.5" fill="url(#paint0_linear_4010_5)"/>
<path d="M59.3471 52.4359L42.5736 61.85C42.2174 62.05 41.783 62.05 41.4268 61.85L24.6533 52.4359C23.8557 51.9891 23.8572 50.8383 24.6533 50.3922L28.8252 48.0508L40.2799 54.4797C41.3482 55.0799 42.6538 55.079 43.7205 54.4797L55.1752 48.0508L59.3471 50.3922C60.1447 50.8391 60.1432 51.9898 59.3471 52.4359Z" fill="white"/>
<path d="M59.3471 40.9781L55.1752 38.6367L43.7205 45.0656C42.6541 45.6648 41.3478 45.6656 40.2799 45.0656L28.8252 38.6367L24.6533 40.9781C23.8572 41.4242 23.8557 42.575 24.6533 43.0219L41.4268 52.4359C41.783 52.6359 42.2174 52.6359 42.5736 52.4359L59.3471 43.0219C60.1432 42.5758 60.1447 41.425 59.3471 40.9781ZM31.6408 44.5641C30.9932 44.5641 30.4689 44.0391 30.4689 43.3922C30.4689 42.7445 30.9932 42.2203 31.6408 42.2203C32.2877 42.2203 32.8127 42.7445 32.8127 43.3922C32.8127 44.0391 32.2877 44.5641 31.6408 44.5641ZM36.6307 47.4664C35.983 47.4664 35.4588 46.9414 35.4588 46.2945C35.4588 45.6469 35.983 45.1227 36.6307 45.1227C37.2775 45.1227 37.8025 45.6469 37.8025 46.2945C37.8025 46.9414 37.2775 47.4664 36.6307 47.4664ZM42.0002 50.1852C41.3533 50.1852 40.8283 49.6609 40.8283 49.0133C40.8283 48.3664 41.3533 47.8414 42.0002 47.8414C42.6471 47.8414 43.1721 48.3664 43.1721 49.0133C43.1721 49.6609 42.6471 50.1852 42.0002 50.1852ZM47.3697 47.4664C46.7229 47.4664 46.1979 46.9414 46.1979 46.2945C46.1979 45.6469 46.7229 45.1227 47.3697 45.1227C48.0174 45.1227 48.5416 45.6469 48.5416 46.2945C48.5416 46.9414 48.0174 47.4664 47.3697 47.4664ZM52.3596 44.5641C51.7127 44.5641 51.1877 44.0391 51.1877 43.3922C51.1877 42.7445 51.7127 42.2203 52.3596 42.2203C53.0072 42.2203 53.5314 42.7445 53.5314 43.3922C53.5314 44.0391 53.0072 44.5641 52.3596 44.5641Z" fill="white"/>
<path d="M59.3471 33.6078L42.5736 43.0219C42.2173 43.2219 41.783 43.2219 41.4268 43.0219L24.6533 33.6078C23.8557 33.1609 23.8572 32.0102 24.6533 31.5641L41.4268 22.15C41.7831 21.95 42.2174 21.95 42.5736 22.15L59.3471 31.5641C60.1447 32.0109 60.1432 33.1617 59.3471 33.6078Z" fill="white"/>
<defs>
<linearGradient id="paint0_linear_4010_5" x1="42.5" y1="0" x2="62.5" y2="108" gradientUnits="userSpaceOnUse">
<stop stop-color="#8C01CB"/>
<stop offset="1" stop-color="#4603AF"/>
</linearGradient>
</defs>
</svg>
